# xmcd CD database file
#
# Track frame offsets:
#	150
#	10640
#	24912
#	35292
#	48000
#	61792
#	77795
#	90482
#	104685
#	118265
#	129902
#	142925
#	156122
#	170320
#	180527
#	191102
#	205812
#	217940
#	232715
#	245315
#
# Disc length: 3446 seconds
#
# Revision: 0
# Processed by: cddbd v1.5.1PL0 Copyright (c) Steve Scherf et al.
# Submitted via: CDex 1.51
#
DISCID=f00d7414
DTITLE=Ray Charles e Nat King Cole - Two Stars-20 great
DYEAR=1998
DGENRE=Blues
TTITLE0=I wonder who s kissing her now-Ray Charles
TTITLE1=Kiss me baby-Ray Charles
TTITLE2=Hey now-Ray Charles
TTITLE3=The snow is falling-Ray Charles
TTITLE4=Misery in my heart-Ray Charles
TTITLE5=Let me hear you call my name-Ray Charles
TTITLE6=Why did you go-Ray Charles
TTITLE7=Walking did you go-Ray Charles
TTITLE8=Baby let me hold uour hand-Ray Charles
TTITLE9=See see rider-Ray Charles
TTITLE10=Nature boy-Nat King Cole
TTITLE11=Sweet Lorraine-Nat King Cole
TTITLE12=Route 66-Nat King Cole
TTITLE13=Little girl-Nat King Cole
TTITLE14=Frim fram sauce-Nat King Cole
TTITLE15=That ain t right-Nat King Cole
TTITLE16=Gone with the draft-Nat King Cole
TTITLE17=This will make you laugh-Nat King Cole
TTITLE18=I like to riff-Nat King Cole
TTITLE19=Hit that Jive Jack-Nat King Cole
EXTD=YEAR: 1998
EXTT0=
EXTT1=
EXTT2=
EXTT3=
EXTT4=
EXTT5=
EXTT6=
EXTT7=
EXTT8=
EXTT9=
EXTT10=
EXTT11=
EXTT12=
EXTT13=
EXTT14=
EXTT15=
EXTT16=
EXTT17=
EXTT18=
EXTT19=
PLAYORDER=
